<?xml version="1.0" encoding="utf-8"?>
<!-- Generator: Adobe Illustrator 23.0.6, SVG Export Plug-In . SVG Version: 6.00 Build 0)  -->
<svg version="1.1" id="Layer_1" xmlns="http://www.w3.org/2000/svg" xmlns:xlink="http://www.w3.org/1999/xlink" x="0px" y="0px"
	 viewBox="0 0 313.74 132.97" style="enable-background:new 0 0 313.74 132.97;" xml:space="preserve">
<style type="text/css">
	.st0{fill:#1C2565;}
</style>
<g>
	<g>
		<path class="st0" d="M0,95.04c0-9.95,3.16-18.48,9.48-25.6c6.32-7.12,15.8-11.24,28.44-12.38l41.32-3.83V43.03
			c0-4.94-0.63-9.03-1.88-12.28c-1.26-3.24-3.04-5.81-5.35-7.72c-2.31-1.9-5.09-3.24-8.33-4.01c-3.24-0.77-6.85-1.15-10.82-1.15
			c-7.94,0-14.28,1.78-19.02,5.35c-4.74,3.57-7.11,9.44-7.11,17.62H4.38c0-6,1.29-11.49,3.88-16.47c2.59-4.98,6.06-9.3,10.43-12.94
			c4.36-3.65,9.5-6.46,15.4-8.45C39.98,0.99,46.32,0,53.11,0c6.81,0,13.15,0.87,19.02,2.61c5.87,1.74,10.98,4.36,15.31,7.84
			c4.33,3.48,7.7,7.96,10.09,13.43c2.39,5.47,3.59,11.93,3.59,19.39v67.46h18.96v19.2H82.16l-0.49-23.46H80.7
			c-3.48,8.99-8.63,15.66-15.44,19.99c-6.81,4.33-14.95,6.5-24.43,6.5c-6.32,0-12.03-0.97-17.14-2.92
			c-5.1-1.94-9.52-4.82-13.25-8.63c-3.32-3.32-5.89-7.29-7.72-11.91C0.91,104.89,0,100.07,0,95.04z M23.7,98.08
			c0,5.84,2.02,10.11,6.08,12.83c4.05,2.72,9.64,4.07,16.77,4.07c10.13,0,18.11-3.61,23.94-10.83c5.83-7.22,8.75-16.55,8.75-27.99
			v-5.72l-45.09,4.17c-4.62,0.32-7.51,1.54-8.69,3.65c-1.18,2.11-1.76,4.98-1.76,8.63V98.08z"/>
	</g>
	<g>
		<path class="st0" d="M180.44,130.46c-5.89-0.27-14.2-0.54-24.11-0.54c-9.91,0-18.21,0.27-24.11,0.54v-2.68
			c8.04-1.61,11.52-2.95,11.52-24.38V30.55c0-13.13-0.27-17.14-8.3-19.29V8.58c11.79-0.27,24.38-2.95,33.48-7.23V18.5
			c9.64-9.11,18.48-17.14,30.8-17.14c13.39,0,20.89,9.11,20.89,30h-24.64c0-10.98-4.29-14.73-10.71-14.73
			c-4.82,0-9.91,2.14-16.34,9.38v77.41c0,21.43,3.48,22.77,11.52,24.38V130.46z"/>
	</g>
	<g>
		<path class="st0" d="M313.74,69.96c-12.69-0.25-29.37-0.25-42.07-0.25c-12.69,0-29.12,0-41.82,0.25V55.03
			c12.69,0.25,29.12,0.5,41.82,0.5c12.69,0,29.37-0.25,42.07-0.5V69.96z"/>
	</g>
</g>
</svg>
