<?xml version="1.0" encoding="utf-8"?>
<!-- Generator: Adobe Illustrator 23.0.2, SVG Export Plug-In . SVG Version: 6.00 Build 0)  -->
<svg version="1.1" id="Layer_1" xmlns="http://www.w3.org/2000/svg" xmlns:xlink="http://www.w3.org/1999/xlink" x="0px" y="0px"
	 viewBox="0 0 171.79 35.34" style="enable-background:new 0 0 171.79 35.34;" xml:space="preserve">
<style type="text/css">
	.st0{clip-path:url(#SVGID_2_);fill:#24285F;}
	.st1{fill:#24285F;}
	.st2{clip-path:url(#SVGID_4_);fill:#24285F;}
</style>
<g>
	<defs>
		<rect id="SVGID_1_" width="171.79" height="35.34"/>
	</defs>
	<clipPath id="SVGID_2_">
		<use xlink:href="#SVGID_1_"  style="overflow:visible;"/>
	</clipPath>
	<path class="st0" d="M13.19,30.14l0.13-7.86c-7.52,2.24-8.84,4.48-8.84,6.51c0,2.41,1.65,3.72,4.1,3.72
		C10.4,32.51,12.13,31.75,13.19,30.14 M18.9,32.59c0.68,0,1.27-0.34,1.86-0.84l0.47,0.46c-1.18,1.44-2.41,3-4.4,3
		c-1.73,0-3.59-0.93-3.55-4.14c-1.23,2.28-3.38,4.27-6.97,4.27c-3.68,0-6.3-2.24-6.3-5.12c0-2.66,2.03-4.48,5.79-6.38
		c1.9-0.97,4.4-2.07,7.57-3.47l0.04-1.01c0.09-4.48-1.52-6-4.27-6c-3.55,0-4.73,2.2-4.52,5.71H0.59c0.17-3.85,4.44-7.35,9.55-7.35
		c3.97,0,7.61,1.52,7.48,7.19l-0.21,10.86C17.37,32.13,17.8,32.59,18.9,32.59"/>
	<path class="st0" d="M23.25,34.03c3.34-0.38,3.38-0.97,3.38-5.33v-9.47c0-4.14-0.08-4.14-3.38-4.19v-0.76l7.78-2.62l0.08,4.4
		c1.61-2.03,3.51-4.44,6.17-4.44c1.9,0,3.17,1.1,3.17,2.79c0,1.48-1.06,2.7-2.62,2.7c-0.59,0-0.89-0.13-1.44-0.63l-1.35-1.31
		c-0.3-0.25-0.47-0.38-0.72-0.38c-0.72,0-2.07,1.02-3.21,2.49V28.7c0,4.78,0.21,4.99,5.03,5.28v0.8H23.25V34.03z"/>
</g>
<rect x="42.44" y="21.16" class="st1" width="22.15" height="2.87"/>
<g>
	<defs>
		<rect id="SVGID_3_" width="171.79" height="35.34"/>
	</defs>
	<clipPath id="SVGID_4_">
		<use xlink:href="#SVGID_3_"  style="overflow:visible;"/>
	</clipPath>
	<path class="st2" d="M87.37,15.94c0,1.27-0.93,2.28-2.41,2.28c-0.8,0-1.52-0.25-1.99-1.18l-1.35-2.79
		c-0.34-0.68-0.8-0.85-1.61-0.85c-3.04,0-6.51,2.28-6.51,8.41c0,5.28,2.75,9.76,8.08,9.76c2.07,0,4.35-0.89,6.04-2.37l0.46,0.42
		c-1.48,2.45-4.06,5.71-8.84,5.71c-6.59,0-9.81-5.24-9.81-11.41c0-7.69,5.62-12.26,11.75-12.26C84.75,11.67,87.37,13.74,87.37,15.94
		"/>
	<path class="st2" d="M104.62,11.67c3.68,0,6.51,2.45,6.51,8.03v9c0,4.36,0.04,4.95,3.38,5.33v0.76h-11.16v-0.76
		c3.26-0.38,3.3-0.97,3.3-5.33v-8.12c0-3.93-1.44-5.83-4.31-5.83c-1.69,0-3.55,0.63-4.44,1.94v12c0,4.36,0.04,4.95,3.3,5.33v0.76
		H90.04v-0.76c3.34-0.38,3.38-0.97,3.38-5.33V7.52c0-4.1-0.08-4.1-3.38-4.14V2.62L97.98,0c-0.04,2.24-0.08,4.95-0.08,9.26v6.3
		C99.46,13.65,101.45,11.67,104.62,11.67"/>
	<path class="st2" d="M119.08,3.55c0-1.65,1.44-2.96,3.13-2.96c1.73,0,3.09,1.31,3.09,2.96c0,1.73-1.35,3-3.09,3
		C120.51,6.55,119.08,5.28,119.08,3.55 M124.66,28.7c0,4.35,0.04,4.95,3.38,5.33v0.76h-11.25v-0.76c3.34-0.38,3.38-0.97,3.38-5.33
		v-9.38c0-4.23-0.04-4.23-3.38-4.27v-0.76l7.95-2.62c-0.04,2.24-0.08,4.95-0.08,9.26V28.7z"/>
	<path class="st2" d="M139.75,35.3l-8.12-19.66c-0.85-1.94-1.27-2.71-2.87-2.83v-0.76h10.27v0.76c-3.26,0.17-3.04,1.31-2.24,3.34
		l4.99,12.68l4.4-10.44c1.73-4.1,1.65-5.33-1.18-5.58v-0.76h7.53v0.76c-1.95,0.17-2.54,1.23-3.72,4.14l-7.86,18.35H139.75z"/>
	<path class="st2" d="M156.27,19.19h10.4c-0.17-3.72-1.86-5.96-4.86-5.96C159.06,13.23,156.78,15.05,156.27,19.19 M152.17,23.67
		c0-6.64,4.69-12.01,10.44-12.01c4.9,0,8.79,3,9.17,9.17h-15.6v0.21c0,6.26,3,10.53,8.2,10.53c3.21,0,5.41-1.4,6.81-2.75l0.51,0.42
		c-1.65,2.92-4.65,6.09-9.38,6.09C155.47,35.34,152.17,30.31,152.17,23.67"/>
</g>
</svg>
