<?xml version="1.0" encoding="utf-8"?>
<!-- Generator: Adobe Illustrator 23.0.2, SVG Export Plug-In . SVG Version: 6.00 Build 0)  -->
<svg version="1.1" id="Layer_1" xmlns="http://www.w3.org/2000/svg" xmlns:xlink="http://www.w3.org/1999/xlink" x="0px" y="0px"
	 viewBox="0 0 70 25.7" style="enable-background:new 0 0 70 25.7;" xml:space="preserve">
<style type="text/css">
	.st0{clip-path:url(#SVGID_2_);fill:#24285F;}
	.st1{fill:#24285F;}
	.st2{clip-path:url(#SVGID_4_);fill:#24285F;}
	.st3{clip-path:url(#SVGID_6_);fill:#C54040;}
	.st4{fill:#C54040;}
</style>
<g>
	<defs>
		<rect id="SVGID_5_" width="70" height="25.7"/>
	</defs>
	<clipPath id="SVGID_2_">
		<use xlink:href="#SVGID_5_"  style="overflow:visible;"/>
	</clipPath>
	<path style="clip-path:url(#SVGID_2_);fill:#C54040;" d="M14.29,20.07l0.14-8.52c-8.15,2.43-9.57,4.86-9.57,7.06
		c0,2.61,1.79,4.03,4.44,4.03C11.27,22.63,13.15,21.81,14.29,20.07 M20.48,22.72c0.73,0,1.37-0.37,2.01-0.92l0.5,0.5
		c-1.28,1.56-2.61,3.25-4.76,3.25c-1.88,0-3.89-1.01-3.85-4.49c-1.33,2.47-3.67,4.63-7.56,4.63C2.84,25.7,0,23.27,0,20.16
		c0-2.89,2.2-4.86,6.28-6.92c2.06-1.05,4.77-2.24,8.2-3.76l0.05-1.1c0.09-4.86-1.65-6.5-4.63-6.5c-3.85,0-5.13,2.38-4.9,6.18H0.64
		c0.18-4.17,4.81-7.97,10.35-7.97c4.31,0,8.25,1.65,8.11,7.79l-0.23,11.77C18.83,22.22,19.29,22.72,20.48,22.72"/>
	<path style="clip-path:url(#SVGID_2_);fill:#C54040;" d="M25.2,24.28c3.62-0.41,3.66-1.05,3.66-5.77V8.25
		c0-4.49-0.09-4.49-3.66-4.54V2.89l8.43-2.84l0.09,4.76C35.46,2.61,37.52,0,40.41,0c2.06,0,3.44,1.19,3.44,3.02
		c0,1.6-1.15,2.93-2.84,2.93c-0.64,0-0.96-0.14-1.56-0.69l-1.47-1.42c-0.32-0.27-0.5-0.41-0.78-0.41c-0.78,0-2.25,1.1-3.48,2.7
		v12.37c0,5.18,0.23,5.41,5.45,5.73v0.87H25.2V24.28z"/>
</g>
<rect x="45.99" y="10.34" class="st4" width="24.01" height="3.11"/>
</svg>
